<svg width="1500" height="154" viewBox="0 0 1500 154" fill="none" xmlns="http://www.w3.org/2000/svg">
<path d="M1099.73 84.5916C1099.73 64.9366 1083.81 49.0122 1064.15 49.0122C1044.5 49.0122 1028.57 64.9366 1028.57 84.5916C1028.57 104.247 1044.5 120.171 1064.15 120.171C1077.86 120.171 1089.77 112.404 1095.71 101.045L1084.24 97.217C1080.04 103.885 1072.62 108.311 1064.15 108.311C1053.1 108.311 1043.82 100.753 1041.18 90.5215H1099.23C1099.56 88.6005 1099.73 86.61 1099.73 84.5916ZM1041.18 78.6617C1043.82 68.4305 1053.1 60.872 1064.15 60.872C1075.2 60.872 1084.49 68.4305 1087.12 78.6617H1041.17H1041.18Z" fill="#3C3C3C"/>
<path d="M1319.14 84.5916C1319.14 64.9366 1303.21 49.0122 1283.56 49.0122C1263.9 49.0122 1247.98 64.9366 1247.98 84.5916C1247.98 104.247 1263.9 120.171 1283.56 120.171C1297.27 120.171 1309.17 112.404 1315.12 101.045L1303.65 97.217C1299.44 103.885 1292.02 108.311 1283.56 108.311C1272.51 108.311 1263.22 100.753 1260.59 90.5215H1318.64C1318.97 88.6005 1319.14 86.61 1319.14 84.5916ZM1260.59 78.6617C1263.22 68.4305 1272.51 60.872 1283.56 60.872C1294.61 60.872 1303.9 68.4305 1306.53 78.6617H1260.58H1260.59Z" fill="#3C3C3C"/>
<path d="M1422.91 49.0261C1403.26 49.0261 1387.33 64.9505 1387.33 84.6055C1387.33 104.26 1403.26 120.185 1422.91 120.185C1442.57 120.185 1458.49 104.26 1458.49 84.6055C1458.49 64.9505 1442.57 49.0261 1422.91 49.0261ZM1422.91 114.241C1406.54 114.241 1393.26 100.961 1393.26 84.5916C1393.26 68.2217 1406.54 54.9421 1422.91 54.9421C1439.28 54.9421 1452.56 68.2078 1452.56 84.5916C1452.56 100.975 1439.28 114.241 1422.91 114.241Z" fill="#3C3C3C"/>
<path d="M1141.24 49.0261C1121.59 49.0261 1105.66 64.9505 1105.66 84.6055C1105.66 104.26 1121.59 120.185 1141.24 120.185C1150.36 120.185 1158.67 116.761 1164.96 111.137V118.709H1176.82V84.6194C1176.82 64.9644 1160.9 49.04 1141.24 49.04V49.0261ZM1141.24 108.311C1128.14 108.311 1117.52 97.6902 1117.52 84.5916C1117.52 71.4929 1128.14 60.872 1141.24 60.872C1154.34 60.872 1164.96 71.4929 1164.96 84.5916C1164.96 97.6902 1154.34 108.311 1141.24 108.311Z" fill="#3C3C3C"/>
<path d="M1009.53 70.1983C1013.98 65.4238 1016.71 59.0206 1016.71 51.9771C1016.71 37.2359 1004.77 25.2926 990.029 25.2926H957.414V118.682H996.696C1003.87 118.682 1010.35 115.772 1015.04 111.081C1019.73 106.39 1022.64 99.9035 1022.64 92.7347C1022.64 83.0743 1017.35 74.6388 1009.53 70.1844V70.1983ZM969.288 37.1663H990.043C998.228 37.1663 1004.87 43.8061 1004.87 51.991C1004.87 56.0835 1003.21 59.7862 1000.52 62.4728C997.838 65.1593 994.135 66.8158 990.043 66.8158H969.288V37.1663ZM1006.45 103.982C1003.77 106.669 1000.07 108.325 995.973 108.325H969.288V78.6756H995.973C1004.16 78.6756 1010.8 85.3154 1010.8 93.5003C1010.8 97.5928 1009.14 101.296 1006.45 103.982Z" fill="#3C3C3C"/>
<path d="M1354.72 49.0261V60.8859H1351.75C1343.57 60.8859 1336.93 67.5257 1336.93 75.7106V118.695H1325.07V50.5016H1336.93V60.872C1336.93 54.3157 1342.23 49.0122 1348.79 49.0122H1354.72V49.0261Z" fill="#3C3C3C"/>
<path d="M1247.94 50.5016L1219 118.695H1205.77L1176.82 50.5016H1189.71L1212.39 103.926L1235.06 50.5016H1247.94Z" fill="#3C3C3C"/>
<path d="M1375.47 25.3065H1369.54V118.695H1375.47V25.3065Z" fill="#3C3C3C"/>
<path d="M1500 25.3065V31.2364H1476.28V118.695H1470.35V31.2364H1446.63V25.3065H1500Z" fill="#3C3C3C"/>
<path d="M833.332 126.101H804.699C795.233 126.101 787.062 120.547 783.276 112.515C783.178 112.306 783.081 112.097 782.997 111.875C781.731 108.979 781.035 105.778 781.035 102.423C781.035 98.1775 782.148 94.1963 784.097 90.7581L785.767 87.8628C791.252 78.4946 809.835 47.4253 827.165 26.3366C824.27 30.2063 753.39 126.087 833.332 126.087V126.101Z" fill="#A384FC"/>
<path d="M879.894 126.101H833.346C753.404 126.101 824.298 30.2202 827.179 26.3505C827.193 26.3226 827.207 26.3087 827.221 26.2948C827.263 26.253 827.277 26.2252 827.277 26.2252C825.62 25.5849 824.437 23.9702 824.437 22.0771C824.437 21.3115 824.632 20.5876 824.98 19.9612C825.008 19.9055 825.05 19.8359 825.091 19.7803C825.537 19.0425 826.191 18.4439 826.971 18.082C827.04 18.0403 827.124 18.0124 827.193 17.9846L861.478 1.99057C862.077 1.71217 862.787 1.57297 863.357 1.57297C864.527 1.57297 865.682 2.01841 866.531 2.88144L876.623 13.0012C876.623 13.0012 879.226 15.5208 878.46 20.4484C877.695 25.39 876.261 33.6585 870.832 41.0778C865.403 48.4832 859.223 56.167 858.109 66.4817C858.109 66.4956 858.109 66.5235 858.109 66.5374C857.873 68.1521 857.748 69.8086 857.748 71.4929C857.748 71.8409 857.748 72.175 857.761 72.509C857.929 78.7452 859.404 81.7936 860.476 84.9535C862.522 90.9669 861.965 96.1869 861.993 96.2704C853.251 92.2336 843.521 89.9786 833.248 89.9786C831.481 89.9786 829.727 90.0482 827.987 90.1735C859.209 90.5215 867.074 108.367 868.884 114.673C868.884 114.686 868.884 114.7 868.884 114.714C869.037 115.383 869.204 116.078 869.371 116.816V116.844C869.371 116.844 875.287 117.053 878.238 121.118C878.307 121.215 878.377 121.298 878.433 121.396C879.24 122.607 879.783 124.138 879.88 126.073L879.894 126.101Z" fill="#7B4EFA"/>
<path d="M790.416 49.917C794.23 53.731 795.01 59.6192 792.31 64.2963L778.863 87.5843C778.863 87.5843 778.835 87.6122 778.835 87.64C776.329 91.997 774.896 97.0638 774.896 102.451C774.896 106.515 775.703 110.385 777.192 113.921L746.165 82.8933C743.743 80.4712 743.256 76.7268 744.968 73.7618L756.118 54.4409C763.286 42.0243 780.283 39.7832 790.43 49.9309L790.416 49.917Z" fill="#A384FC"/>
<path d="M919.635 84.0904L891.642 112.083C889.206 114.519 885.267 114.519 882.831 112.083L874.66 103.912L899.813 78.7591L874.66 53.6057L882.831 45.4347C885.267 42.9987 889.206 42.9987 891.642 45.4347L919.635 73.4277C922.586 76.3788 922.586 81.1672 919.635 84.1183V84.0904Z" fill="#A384FC"/>
<path d="M167.861 61.6097H179.122L165.647 125.572H154.372L167.861 61.6097Z" fill="#3C3C3C"/>
<path d="M173.86 33.1156H185.121L182.045 47.7315H170.784L173.86 33.1156Z" fill="#3C3C3C"/>
<path d="M202.563 33.1156H213.908L194.42 125.572H183.075L202.563 33.1156Z" fill="#3C3C3C"/>
<path d="M276.896 87.4034C276.715 88.2386 276.422 89.2826 276.019 90.5493C275.615 91.8021 275.17 93.1523 274.682 94.6L227.076 95.811C226.352 99.1657 225.67 103.495 225.921 105.973C226.157 108.45 226.965 110.483 228.357 112.083C229.735 113.684 231.767 114.881 234.44 115.689C237.112 116.482 240.258 117.122 244.49 117.122C248.374 117.122 252.09 117.025 256.336 116.802C260.623 116.58 264.256 116.246 267.18 115.104L265.384 123.637C264.034 123.915 263.588 124.041 261.667 124.347C259.886 124.625 257.784 124.959 255.529 125.126C253.357 125.28 251.241 125.447 248.722 125.502C246.202 125.558 243.738 125.6 241.233 125.6C236.055 125.6 231.586 125.071 227.8 124.041C224.014 123.011 221.007 121.257 218.78 118.779C216.553 116.301 215.175 113.03 214.632 108.951C214.089 104.873 214.618 99.7504 215.94 93.5838C217.277 87.4173 219.086 82.2948 221.397 78.2162C223.694 74.1377 226.478 70.8665 229.735 68.3887C232.992 65.911 236.681 64.1571 240.829 63.1409C244.977 62.1108 249.543 61.5958 254.554 61.5958C260.498 61.5958 265.147 62.3753 268.474 63.9343C271.801 65.4934 274.195 67.5118 275.643 69.9895C277.091 72.4673 277.828 75.2373 277.856 78.3276C277.884 81.4178 277.564 84.4384 276.924 87.4034H276.896ZM265.885 87.5147C266.4 85.1484 266.706 82.8933 266.832 80.7218C266.957 78.5503 266.609 76.6433 265.801 75.0146C264.994 73.3721 263.56 72.0775 261.528 71.131C259.496 70.1844 256.573 69.6972 252.786 69.6972C248.736 69.6972 245.339 70.1566 242.597 71.0753C239.855 71.994 237.558 73.3164 235.72 75.0703C233.869 76.8242 232.38 78.954 231.238 81.4735C230.097 83.993 229.443 85.385 228.677 88.5031L265.885 87.5287V87.5147Z" fill="#3C3C3C"/>
<path d="M330.905 94.8088C329.485 93.3889 327.481 92.2057 324.878 91.2453C322.275 90.2848 319.087 89.38 315.301 88.5448C312.656 88.0158 310.526 87.4869 308.912 86.9858C307.297 86.4846 306.086 85.8721 305.306 85.1483C304.513 84.4245 304.04 83.5614 303.859 82.5592C303.692 81.557 303.775 80.2624 304.123 78.6477C304.889 75.1259 306.629 72.7456 309.357 71.5207C312.085 70.2957 315.899 69.6832 320.813 69.6832C324.084 69.6832 327.147 69.9199 329.972 70.3792C332.617 70.8108 334.803 71.3397 336.584 71.98L338.408 63.3357C336.877 62.8903 334.886 62.5145 332.325 62.2082C329.082 61.8324 325.783 61.6236 322.428 61.6236C314.062 61.6236 307.45 63.1687 302.606 66.245C297.762 69.3074 294.797 73.372 293.697 78.4389C293.14 81.0419 292.945 83.3109 293.14 85.2318C293.321 87.1528 294.003 88.7953 295.173 90.1734C296.342 91.5515 298.068 92.7486 300.351 93.7369C302.634 94.7392 305.64 95.6161 309.357 96.3817C312.573 97.0777 315.12 97.718 317.013 98.3444C318.906 98.9569 320.326 99.6668 321.272 100.474C322.219 101.282 322.762 102.284 322.887 103.467C323.012 104.664 322.887 106.167 322.484 108.019C321.69 111.694 319.783 114.213 316.776 115.549C313.77 116.886 309.594 117.568 304.248 117.568C302.689 117.568 301.005 117.512 299.182 117.401C297.344 117.289 295.562 117.109 293.794 116.886C292.027 116.649 290.342 116.385 288.728 116.078C287.113 115.772 285.693 115.452 284.552 115.146L282.756 123.679C283.661 123.915 284.872 124.152 286.417 124.43C287.948 124.695 289.66 124.904 291.526 125.057C293.391 125.21 295.284 125.349 297.191 125.46C299.112 125.572 300.922 125.628 302.648 125.628C311.264 125.628 318.154 124.194 323.305 121.312C328.455 118.431 331.699 113.893 333.049 107.685C333.689 104.692 333.856 102.158 333.522 100.084C333.188 98.0104 332.325 96.2704 330.905 94.8505V94.8088Z" fill="#3C3C3C"/>
<path d="M357.019 61.6097H368.21L354.736 125.572H343.53L357.019 61.6097Z" fill="#3C3C3C"/>
<path d="M363.018 33.1156H374.21L371.134 47.7315H359.942L363.018 33.1156Z" fill="#4696F5"/>
<path d="M433.62 61.6097L431.602 71.1866C427.927 65.3681 421.371 61.6097 413.102 61.6097H411.056C405.196 61.6097 400.213 62.5145 396.12 64.2962C392.028 66.0919 388.548 68.514 385.694 71.5764C382.84 74.6388 380.558 78.2023 378.873 82.2808C377.175 86.3594 375.839 90.6885 374.864 95.2542C373.779 100.321 373.653 101.908 373.584 106.028C373.514 110.149 374.266 113.684 375.839 116.621C377.412 119.558 379.876 121.841 383.23 123.47C386.585 125.099 391.234 125.558 397.094 125.558C403.818 125.558 409.135 124.556 413.061 122.398C413.492 122.161 413.91 121.855 414.327 121.591L416.207 112.654C414.745 113.67 413.158 114.519 411.376 115.174C408.384 116.273 404.764 116.83 400.547 116.83C396.329 116.83 393.211 116.454 391.039 115.146C388.868 113.837 387.364 112.07 386.557 109.828C385.75 107.587 385.471 104.956 385.736 101.936C386 98.9152 386.042 98.6785 386.78 95.2542C387.462 92.0665 388.297 88.9763 389.299 85.9557C390.288 82.9351 391.68 80.2903 393.461 77.9935C395.243 75.7106 397.512 73.8732 400.268 72.4812C403.024 71.0892 406.518 70.4071 410.736 70.4071C414.954 70.4071 418.322 71.0057 420.828 72.1889C423.334 73.372 425.171 75.0285 426.354 77.1444C427.537 79.2602 428.122 81.8771 428.094 84.9813C428.08 87.988 427.37 91.2313 426.619 94.8505V94.8923L426.563 95.0872C426.563 95.1428 426.549 95.1846 426.535 95.2403C426.438 95.6996 426.354 96.1312 426.257 96.5627L421.747 118.013L420.647 123.205C419.018 130.792 415.817 136.179 411.362 139.436C406.908 142.693 400.797 144.336 393.044 144.336C386.919 144.336 375.992 142.109 370.855 140.912L368.934 149.848C372.053 150.753 379.068 152.577 382.019 152.897C384.97 153.217 387.949 153.384 390.97 153.384C402.788 153.384 411.975 150.809 418.559 145.672C425.143 140.536 429.528 133.381 431.491 124.249L444.77 61.5818H433.634L433.62 61.6097Z" fill="#3C3C3C"/>
<path d="M512.672 74.6388C512.505 72.0079 511.739 69.7112 510.375 67.7763C509.025 65.8414 506.951 64.3381 504.153 63.2662C501.355 62.1944 497.694 61.6097 493.114 61.6097C490.957 61.6097 488.743 61.8325 486.474 62.1526C484.205 62.4867 481.992 63.0435 479.848 63.823C479.389 63.9901 478.93 64.1849 478.47 64.3798C474.977 65.73 471.455 67.9851 468.657 70.5603L476.549 33.1156H465.4L445.912 125.572H457.062L465.622 84.9674C467.195 82.0025 469.186 79.2185 471.065 77.4785C472.944 75.7524 474.907 74.4022 476.967 73.4556C479.027 72.5091 481.143 71.8966 483.315 71.6043C485.486 71.3119 487.699 71.1727 489.94 71.1727C492.697 71.1727 494.882 71.5486 496.497 72.2863C498.111 73.0241 499.267 74.082 499.963 75.4323C500.659 76.7964 500.979 78.4807 500.895 80.4991C500.812 82.5175 500.325 84.8004 499.782 87.3616L491.736 125.572H502.886L511.767 83.3805C512.449 80.165 512.867 77.2836 512.7 74.6388H512.672Z" fill="#3C3C3C"/>
<path d="M544.715 116.496C543.518 116.621 542.154 116.677 540.595 116.677C538.438 116.677 536.753 116.496 535.542 116.12C534.331 115.744 533.454 115.09 532.925 114.144C532.396 113.197 532.174 111.903 532.271 110.26C532.368 108.617 532.689 106.474 533.245 103.843L539.788 72.6622H557.118L557.786 69.5441L559.457 61.6097H542.126L548.126 33.1156H537.032L521.984 104.469C521.051 108.826 520.662 112.39 520.815 115.146C520.954 117.902 521.706 120.06 523.056 121.633C524.406 123.192 526.341 124.25 528.861 124.778C531.38 125.307 534.582 125.586 538.451 125.586C539.913 125.586 541.263 125.53 542.502 125.405C543.741 125.28 544.674 125.182 546.093 125.015L547.987 116.009C546.72 116.259 545.899 116.399 544.715 116.524V116.496Z" fill="#3C3C3C"/>
<path d="M20.7407 27.1717L0 125.586H20.1422L35.9274 50.78L20.7407 27.1717Z" fill="#235FA5"/>
<path d="M130.513 59.2433L116.538 125.586H136.708L155.778 35.0644L130.513 59.2433Z" fill="#235FA5"/>
<path d="M152.382 0L84.9117 64.5886C83.1578 66.2729 80.3042 65.9388 78.9818 63.8926L53.9955 25.0698C52.9793 23.4969 51.2254 22.5364 49.3601 22.5364H24.2764L24.8192 23.3855L74.5691 100.739C75.4879 102.172 77.4923 102.409 78.7312 101.226L184.495 0H152.382Z" fill="#4696F5"/>
<path d="M651.704 17.7897V125.572" stroke="#3C3C3C" stroke-width="1.5" stroke-miterlimit="10"/>
</svg>
